{
  "accessors": [
    {
      "bufferView": 3,
      "componentType": 5126,
      "count": 1017,
      "max": [
        92.93414306640625,
        190.6041717529297,
        45.363807678222656
      ],
      "min": [
        -92.93414306640625,
        -1.0128690004348755,
        -42.41114807128906
      ],
      "type": "VEC3"
    },
    {
      "bufferView": 3,
      "byteOffset": 12204,
      "componentType": 5126,
      "count": 1017,
      "max": [
        0.9981349110603333,
        0.9996227025985718,
        0.9996834397315979
      ],
      "min": [
        -0.9981349110603333,
        -1.0,
        -0.9996636509895325
      ],
      "type": "VEC3"
    },
    {
      "bufferView": 2,
      "componentType": 5126,
      "count": 1017,
      "max": [
        0.9803311228752136,
        0.9788510203361511
      ],
      "min": [
        0.0161745622754097,
        0.025085806846618652
      ],
      "type": "VEC2"
    },
    {
      "bufferView": 1,
      "componentType": 5125,
      "count": 4212,
      "type": "SCALAR"
    },
    {
      "bufferView": 5,
      "componentType": 5126,
      "count": 4,
      "max": [
        1.0,
        0.0,
        0.0,
        0.0,
        0.0,
        1.0,
        6.123234262925839e-17,
        0.0,
        0.0,
        0.0,
        1.0,
        0.0,
        0.0,
        0.0,
        0.0,
        1.0
      ],
      "min": [
        1.0,
        0.0,
        0.0,
        0.0,
        0.0,
        1.0,
        0.0,
        0.0,
        0.0,
        -6.123234262925839e-17,
        1.0,
        0.0,
        0.0,
        0.0,
        0.0,
        1.0
      ],
      "type": "MAT4"
    },
    {
      "bufferView": 0,
      "componentType": 5123,
      "count": 1017,
      "type": "VEC4"
    },
    {
      "bufferView": 4,
      "componentType": 5126,
      "count": 1017,
      "max": [
        1.0,
        0.0,
        0.0,
        0.0
      ],
      "min": [
        1.0,
        0.0,
        0.0,
        0.0
      ],
      "type": "VEC4"
    }
  ],
  "asset": {
    "extras": {
      "author": "haxagun (https://sketchfab.com/haxagun)",
      "license": "SKETCHFAB Standard (https://sketchfab.com/licenses)",
      "source": "https://sketchfab.com/3d-models/life-up-heart-super-mario-odyssey-c0309e9c0dd440a4bc1f367b8777bfc4",
      "title": "Life-up Heart - Super Mario Odyssey"
    },
    "generator": "Sketchfab-16.27.0",
    "version": "2.0"
  },
  "bufferViews": [
    {
      "buffer": 0,
      "byteLength": 8136,
      "byteStride": 8,
      "name": "shortBufferViews",
      "target": 34962
    },
    {
      "buffer": 0,
      "byteLength": 16848,
      "byteOffset": 8136,
      "name": "floatBufferViews",
      "target": 34963
    },
    {
      "buffer": 0,
      "byteLength": 8136,
      "byteOffset": 24984,
      "byteStride": 8,
      "name": "floatBufferViews",
      "target": 34962
    },
    {
      "buffer": 0,
      "byteLength": 24408,
      "byteOffset": 33120,
      "byteStride": 12,
      "name": "floatBufferViews",
      "target": 34962
    },
    {
      "buffer": 0,
      "byteLength": 16272,
      "byteOffset": 57528,
      "byteStride": 16,
      "name": "floatBufferViews",
      "target": 34962
    },
    {
      "buffer": 0,
      "byteLength": 256,
      "byteOffset": 73800,
      "name": "floatBufferViews"
    }
  ],
  "buffers": [
    {
      "byteLength": 74056,
      "uri": "scene.bin"
    }
  ],
  "images": [
    {
      "uri": "textures/BodyMT_baseColor.png"
    }
  ],
  "materials": [
    {
      "doubleSided": true,
      "name": "BodyMT",
      "pbrMetallicRoughness": {
        "baseColorTexture": {
          "index": 0
        },
        "metallicFactor": 0.0,
        "roughnessFactor": 0.16647365020541016
      }
    }
  ],
  "meshes": [
    {
      "name": "LifeMaxUpItem__BodyMT_BodyMT_0",
      "primitives": [
        {
          "attributes": {
            "JOINTS_0": 5,
            "NORMAL": 1,
            "POSITION": 0,
            "TEXCOORD_0": 2,
            "TEXCOORD_1": 2,
            "WEIGHTS_0": 6
          },
          "indices": 3,
          "material": 0,
          "mode": 4
        }
      ]
    }
  ],
  "nodes": [
    {
      "children": [
        1
      ],
      "matrix": [
        0.12362878024578094,
        0.0,
        0.0,
        0.0,
        0.0,
        2.7451103667037945e-17,
        -0.12362878024578094,
        0.0,
        0.0,
        0.12362878024578094,
        2.7451103667037945e-17,
        0.0,
        0.0,
        0.0,
        0.0,
        1.0
      ],
      "name": "Sketchfab_model"
    },
    {
      "children": [
        2
      ],
      "matrix": [
        0.02539999969303608,
        0.0,
        0.0,
        0.0,
        0.0,
        0.0,
        0.02539999969303608,
        0.0,
        0.0,
        -0.02539999969303608,
        0.0,
        0.0,
        0.0,
        0.0,
        0.0,
        1.0
      ],
      "name": "LifeMaxUpItem.fbx"
    },
    {
      "children": [
        3
      ],
      "name": "RootNode"
    },
    {
      "children": [
        4,
        6,
        5
      ],
      "name": "Object_3"
    },
    {
      "children": [
        7
      ],
      "name": "_rootJoint"
    },
    {
      "matrix": [
        1.0,
        0.0,
        0.0,
        0.0,
        0.0,
        6.123233995736766e-17,
        -1.0,
        0.0,
        0.0,
        1.0,
        6.123233995736766e-17,
        0.0,
        0.0,
        0.0,
        0.0,
        1.0
      ],
      "name": "Object_5"
    },
    {
      "mesh": 0,
      "name": "Object_6",
      "skin": 0
    },
    {
      "children": [
        8
      ],
      "name": "AllRoot_00"
    },
    {
      "children": [
        9
      ],
      "name": "Center_01",
      "translation": [
        0.0,
        93.53240966796875,
        1.1201214790344238
      ]
    },
    {
      "name": "LifeMaxUpItem_02",
      "translation": [
        0.0,
        -93.53240966796875,
        -1.1201214790344238
      ]
    }
  ],
  "samplers": [
    {
      "magFilter": 9729,
      "minFilter": 9987,
      "wrapS": 10497,
      "wrapT": 10497
    }
  ],
  "scene": 0,
  "scenes": [
    {
      "name": "Sketchfab_Scene",
      "nodes": [
        0
      ]
    }
  ],
  "skins": [
    {
      "inverseBindMatrices": 4,
      "joints": [
        4,
        7,
        8,
        9
      ],
      "skeleton": 4
    }
  ],
  "textures": [
    {
      "sampler": 0,
      "source": 0
    }
  ]
}
